<svg xmlns="http://www.w3.org/2000/svg" viewBox="0 0 512 512" id="indian-woman">
  <path fill="#3b3f4d" d="M161.171 273.772V102.209A94.828 94.828 0 0 1 256 7.38a94.828 94.828 0 0 1 94.829 94.829v186.563"></path>
  <path fill="#313440" d="M256 7.38q-4.81 0-9.5.473a94.839 94.839 0 0 1 85.329 94.356v171.563h19V102.209A94.829 94.829 0 0 0 256 7.38Z"></path>
  <path fill="#ff8e66" d="M170.7 455.27h170.6V512H170.7z"></path>
  <path fill="#ff8e66" d="m437.28 453.87-20.54-70.39-19.77-67.78a79.984 79.984 0 0 0-76.59-56.93h-7.88a24.02 24.02 0 0 1-24-24v-13.22h-65v13.22a24.026 24.026 0 0 1-24 24h-7.87a79.993 79.993 0 0 0-76.6 56.93L74.72 453.87a30.002 30.002 0 0 0 31.98 38.24l124.84-13.34 2.11-.22a25.002 25.002 0 0 0 21.57-18.68 24.742 24.742 0 0 0 .78-6.18 25.005 25.005 0 0 0 22.35 24.86l13.83 1.48 113.12 12.08a29.985 29.985 0 0 0 12.07-1.15l.58-.18c.1-.03.21-.06.31-.1.52-.18 1.03-.37 1.53-.58.01 0 .01 0 .02-.01a30.231 30.231 0 0 0 15.46-14.28c.23-.45.45-.9.65-1.36.13-.3.26-.6.38-.9.12-.3.24-.61.36-.91q.18-.465.33-.93a29.73 29.73 0 0 0 .29-17.84ZM170.7 440.83l-39.71 2.48 21.19-55.88c.76 2.1 3.99 12.92 5.12 15.04a51.213 51.213 0 0 0 13.4 15.98Zm171.73 2.48v-31.95s11.55-5.64 13.28-8.93c.52-.99 2.88-17.96 3.32-18.95l21.98 59.83Z"></path>
  <path fill="#ff7c4e" d="M233.937 453.69a24.742 24.742 0 0 1-.78 6.18 25.002 25.002 0 0 1-21.57 18.68L94.852 491.02a29.943 29.943 0 0 0 11.848 1.09l126.95-13.559a24.88 24.88 0 0 0 11.322-4.147 24.973 24.973 0 0 1-11.035-20.713zm203.343.18-20.54-70.39-19.77-67.78a79.985 79.985 0 0 0-76.59-56.93h-7.88a24.02 24.02 0 0 1-24-24v-13.22h-22.063v13.22a24.02 24.02 0 0 0 24 24h7.88a79.985 79.985 0 0 1 76.59 56.93l19.77 67.78 20.54 70.39a29.73 29.73 0 0 1-.29 17.84q-.15.465-.33.93c-.12.3-.24.61-.36.91-.12.3-.25.6-.38.9-.2.46-.42.91-.65 1.36a30.231 30.231 0 0 1-15.46 14.28c-.01.01-.01.01-.02.01-.5.21-1.01.4-1.53.58-.1.04-.21.07-.31.1l-.58.18c-.07.022-.142.039-.212.06l10.205 1.09a29.985 29.985 0 0 0 12.07-1.15l.58-.18c.1-.03.21-.06.31-.1.52-.18 1.03-.37 1.53-.58.01 0 .01 0 .02-.01a30.231 30.231 0 0 0 15.46-14.28c.23-.45.45-.9.65-1.36.13-.3.26-.6.38-.9.12-.3.24-.61.36-.91q.18-.465.33-.93a29.73 29.73 0 0 0 .29-17.84z"></path>
  <path fill="#3ce568" d="m366.52 273.42-6.11 14.92a79.884 79.884 0 0 0-41.28-26.81l1.24-2.76h.01a79.899 79.899 0 0 1 46.14 14.65Z"></path>
  <path fill="#ffc166" d="M311 126.62h16a24 24 0 0 1 24 24 24 24 0 0 1-24 24h-16v-48zm-110 1-16-1a24 24 0 0 0-24 24 24 24 0 0 0 24 24l16 1"></path>
  <path fill="#ff7c4e" d="m374.28 279.66-82.1 200.37-12.32 30.07h-62.42l14.1-31.33 98.78-219.38a79.965 79.965 0 0 1 43.96 20.27Z"></path>
  <path fill="#ff7c4e" d="M256 455.27v7.23a25.005 25.005 0 0 1-22.35 24.86l-62.95 6.72v-38.81zm0 0v7.23a25.005 25.005 0 0 0 22.35 24.86l62.95 6.72v-38.81z"></path>
  <path fill="#ffc97a" d="m301.75 256.22-.41.38-25.83 25.64a27.692 27.692 0 0 1-39.02 0l-25.83-25.64-.12-.53a23.948 23.948 0 0 0 12.96-21.3v-13.22h65v13.22a23.96 23.96 0 0 0 13.25 21.45Z"></path>
  <path fill="#ffe966" d="M366.52 273.42 268.765 512h-62.418L320.37 258.77h.01a79.899 79.899 0 0 1 46.14 14.65Z"></path>
  <path fill="#ffe236" d="m366.52 273.42-6.11 14.92a79.884 79.884 0 0 0-41.28-26.81l1.24-2.76h.01a79.899 79.899 0 0 1 46.14 14.65Z"></path>
  <path fill="#ffcd85" d="M255.128 236.157c-36.089-.468-64.799-30.552-64.799-66.644v-47.856a18.327 18.327 0 0 1 18.183-18.3 46.925 46.925 0 0 0 24.102-6.803c19.779-12.01 22.528-33.248 22.805-35.728.646 2.936 6.08 25.793 28.453 36.597a50.969 50.969 0 0 0 20.104 5.004 18.365 18.365 0 0 1 17.695 18.293v49.772a65.671 65.671 0 0 1-66.543 65.665Z"></path>
  <path fill="#ffc570" d="M303.976 102.427a50.967 50.967 0 0 1-20.104-5.004c-22.373-10.804-27.807-33.661-28.453-36.597a51.45 51.45 0 0 1-6.572 19.114 50.41 50.41 0 0 0 40.129 22.487 18.365 18.365 0 0 1 17.695 18.293v49.772a65.666 65.666 0 0 1-58.237 65.234 65.667 65.667 0 0 0 73.237-65.234V120.72a18.365 18.365 0 0 0-17.695-18.293Z"></path>
  <path fill="#ffcd85" d="M256 368.52v85.17a25.005 25.005 0 0 1-22.35 24.86L106.7 492.11l20.56-41.31 3.73-7.49 4.1-.26 35.61-2.22 14.02-.88 28.68-1.79 8.48-26.61a56.295 56.295 0 0 1 13.85-22.76zm0 0v85.17a25.005 25.005 0 0 0 22.35 24.86l126.951 13.56-20.56-41.31-3.73-7.49-4.1-.26-35.61-2.22-14.02-.88-28.68-1.79-8.48-26.61a56.294 56.294 0 0 0-13.85-22.76z"></path>
  <path fill="#ffc570" d="M285.966 478.55a25.005 25.005 0 0 1-22.35-24.86v-77.555l-7.615-7.615v85.17a25.005 25.005 0 0 0 22.35 24.86Z"></path>
  <path fill="#313440" d="m444.485 451.653-40.33-138.237a86.891 86.891 0 0 0-31.59-44.993c-.6-.446-1.213-.87-1.822-1.3l-.033-.023a87.929 87.929 0 0 0-12.472-7.343 7.497 7.497 0 0 0 .09-1.105V153.786a31.5 31.5 0 0 0 0-6.572V102.09a102.328 102.328 0 0 0-204.656 0v45.125a31.5 31.5 0 0 0 0 6.572v104.865a7.497 7.497 0 0 0 .09 1.105 88.169 88.169 0 0 0-14.327 8.666 86.938 86.938 0 0 0-31.609 45.056L67.515 451.653a37.503 37.503 0 0 0 35.974 48.004 37.841 37.841 0 0 0 4.006-.213l55.7-5.947V504.5a7.5 7.5 0 0 0 15 0v-12.605l30.595-3.267-5.802 12.62a7.5 7.5 0 1 0 13.63 6.266l9.533-20.74 8.3-.886A32.419 32.419 0 0 0 256 474.364a32.415 32.415 0 0 0 12.722 9.313l-6.043 18.36a7.5 7.5 0 1 0 14.248 4.689l6.648-20.195 50.23 5.364V504.5a7.5 7.5 0 0 0 15 0v-11.003l55.7 5.947a37.841 37.841 0 0 0 4.006.213 37.503 37.503 0 0 0 35.974-48.004Zm-123.137-30.278a7.492 7.492 0 0 0 9.93 3.727 52.306 52.306 0 0 0 3.617-1.824v11.479l-25.589-3.007 31.2-75.666 3.842 9.989c1.964 6.116 4.166 17.72-1.907 29.254a37.015 37.015 0 0 1-17.367 16.118 7.498 7.498 0 0 0-3.726 9.93Zm-21.843-5.205-2.234-7.016a64.165 64.165 0 0 0-15.697-25.787l-6.301-6.301 49.873-110.747a71.749 71.749 0 0 1 32.067 9.897Zm-43.501-187.626q-.39 0-.778-.005c-31.649-.41-57.397-26.942-57.397-59.144v-47.857a10.877 10.877 0 0 1 10.766-10.8 54.376 54.376 0 0 0 47.69-28.816 57.955 57.955 0 0 0 47.372 27.88 10.867 10.867 0 0 1 10.514 10.799v49.772a58.17 58.17 0 0 1-58.167 58.171Zm34.246 28.384-20.02 19.868a20.259 20.259 0 0 1-28.46 0l-20.02-19.868a31.436 31.436 0 0 0 8.95-17.994 71.448 71.448 0 0 0 24.33 4.603c.328.005.653.007.98.007a73.15 73.15 0 0 0 25.304-4.491 31.435 31.435 0 0 0 8.936 17.875Zm5.848-25.325a73.92 73.92 0 0 0 11.303-9.154 72.57 72.57 0 0 0 20.85-40.48 31.29 31.29 0 0 0 15.077-4.54v76.773a87.621 87.621 0 0 0-22.729-3.045l-.105-.002-.12-.003H312.5A16.52 16.52 0 0 1 296 234.76Zm33.073-64.763v-32.68a16.512 16.512 0 0 1 14.157 14.091v4.5a16.511 16.511 0 0 1-14.157 14.09Zm-160.5-64.75a87.328 87.328 0 0 1 174.657 0v21.481a31.284 31.284 0 0 0-14.206-4.491 25.84 25.84 0 0 0-24.827-24.265 43.467 43.467 0 0 1-17.162-4.265c-18.606-8.985-23.58-27.777-24.389-31.453a7.5 7.5 0 0 0-14.78.78c-.225 2.026-2.684 20.092-19.244 30.148a39.366 39.366 0 0 1-20.288 5.713 25.95 25.95 0 0 0-25.481 23.336 31.282 31.282 0 0 0-14.28 4.497Zm0 46.16a16.512 16.512 0 0 1 14.158-14.09v32.68a16.512 16.512 0 0 1-14.157-14.09Zm0 29.18a31.301 31.301 0 0 0 15.244 4.543 74.642 74.642 0 0 0 32.182 49.455l-.093 2.992a6.149 6.149 0 0 0-.004.232 16.52 16.52 0 0 1-16.5 16.5h-7.873a87.633 87.633 0 0 0-22.955 3.05ZM248.5 453.57a17.466 17.466 0 0 1-15.642 17.4l-62.921 6.72-.02.002-48.936 5.225 14.95-32.522 77.938-4.867a7.498 7.498 0 0 0 6.679-5.21l8.474-26.614a49.078 49.078 0 0 1 12.011-19.73l7.467-7.468Zm-106.423-18.588 13.546-36.118a49.58 49.58 0 0 0 1.677 3.485 49.887 49.887 0 0 0 5.895 8.701v22.614ZM261.04 362.87a7.405 7.405 0 0 0-.433-.372 7.403 7.403 0 0 0-.454-.322c-.15-.1-.3-.198-.457-.288a7.644 7.644 0 0 0-.53-.267c-.101-.047-.193-.107-.296-.15-.056-.023-.115-.034-.172-.056a7.27 7.27 0 0 0-.568-.187c-.165-.05-.329-.1-.496-.137a7.55 7.55 0 0 0-.563-.096c-.174-.025-.346-.052-.52-.065-.189-.013-.377-.013-.567-.012-.175 0-.349-.001-.523.012-.187.013-.372.041-.558.069-.177.026-.354.051-.529.09-.174.04-.346.092-.519.143-.185.056-.369.112-.55.182-.058.022-.117.034-.175.058-.105.043-.198.103-.3.15a7.679 7.679 0 0 0-.525.266 7.26 7.26 0 0 0-.459.289 7.38 7.38 0 0 0-.453.32c-.15.118-.292.244-.433.373-.086.078-.18.144-.264.227l-20.27 20.27a64.165 64.165 0 0 0-15.697 25.787l-6.917 21.724-29.617 1.85v-9.417a53.029 53.029 0 0 0 3.486 1.774 7.5 7.5 0 1 0 6.275-13.623 37.74 37.74 0 0 1-17.42-16.168c-8.13-15.256-1.947-30.782-.626-33.74a7.47 7.47 0 0 0 .62-2.438l7.992-21.307a7.5 7.5 0 1 0-14.044-5.268L124.06 440.304l-20.384 44.346a22.494 22.494 0 0 1-21.762-28.796l40.293-138.112a72.5 72.5 0 0 1 69.419-51.59h7.873a31.388 31.388 0 0 0 8.94-1.3l22.763 22.59a35.299 35.299 0 0 0 49.594 0l22.762-22.59a31.281 31.281 0 0 0 5.308 1.085l-44.938 99.786-2.625-2.626c-.083-.083-.178-.149-.264-.227Zm81.042 114.823-.019-.003-62.834-6.709-.057-.006-.03-.003a17.466 17.466 0 0 1-15.642-17.4v-67.065l7.467 7.468a49.078 49.078 0 0 1 12.012 19.73l8.473 26.614c.009.028.023.053.032.08a7.612 7.612 0 0 0 .325.811c.032.07.063.139.097.207a7.515 7.515 0 0 0 .48.824c.018.029.04.055.06.083a7.48 7.48 0 0 0 .545.69c.042.048.084.096.128.143a7.419 7.419 0 0 0 1.481 1.224c.068.043.136.083.204.123a7.576 7.576 0 0 0 .702.363c.06.027.116.058.176.083.02.008.038.02.057.028a7.414 7.414 0 0 0 .838.283c.068.02.137.034.206.051a7.438 7.438 0 0 0 .841.162c.034.005.066.015.1.02l81.247 9.546 13.657 28.05Zm7.813-41.173v-25.533a49.32 49.32 0 0 0 5.819-8.672c.523-.993.989-1.985 1.428-2.975l15.32 39.83Zm75.847 40.074a22.093 22.093 0 0 1-15.69 8.019l-19.249-39.537-32.473-84.435a49.33 49.33 0 0 0-1.723-4.48l-7.785-20.244 20.806-50.459a71.814 71.814 0 0 1 20.145 32.222l40.312 138.174a22.17 22.17 0 0 1-4.343 20.74ZM256 127.5a5 5 0 1 0-5-5 5 5 0 0 0 5 5Zm43.209 13.143a17.623 17.623 0 0 0-12.34-5.12h-.094a17.641 17.641 0 0 0-12.25 5.12 5 5 0 1 0 7.076 7.064c.087-.088.23-.217.398-.36a15.27 15.27 0 0 0-.132 1.986c0 4.867 2.238 8.811 5 8.811 2.76 0 5-3.944 5-8.81a15.27 15.27 0 0 0-.133-1.986c.168.142.31.271.399.359a5 5 0 1 0 7.076-7.064Zm-74.074-5.12h-.093a17.641 17.641 0 0 0-12.251 5.12 5 5 0 1 0 7.076 7.064c.088-.088.231-.217.399-.36a15.27 15.27 0 0 0-.133 1.986c0 4.867 2.239 8.811 5 8.811 2.762 0 5-3.944 5-8.81a15.277 15.277 0 0 0-.132-1.987c.167.143.31.272.398.36a5 5 0 0 0 7.077-7.064 17.623 17.623 0 0 0-12.341-5.12Zm37.637 57.812a7.662 7.662 0 0 1-5.27 2.186h-.04a7.67 7.67 0 0 1-5.229-2.186 5 5 0 1 0-7.07 7.07 17.653 17.653 0 0 0 12.247 5.116h.097a17.638 17.638 0 0 0 12.336-5.116 5 5 0 0 0-7.07-7.07Z"></path>
</svg>
