<svg xmlns="http://www.w3.org/2000/svg" viewBox="0 0 512 512" id="indian-man">
  <path fill="#f66" d="M343.42 455.5V512H166.84v-56.32l89.16-.09 87.42-.09z"></path>
  <path fill="#3b3f4d" d="M337.3 57.72c.18 16.79-6.54 33.63-14.2 48.27l-134.69-9.72a81.74 81.74 0 0 1-.64-88.77c1.3 7.79 8.3 12.83 14.89 11.83 5.2-.79 9.6-5.24 10.7-11.08a163.25 163.25 0 0 1 39.25 7.5 161.265 161.265 0 0 1 22.38 9.09c4.39 2.17 8.31 4.36 11.78 6.44.17.1 6.08-3.77 6.67-4.04.66-.3 1.32-.58 1.99-.83a31.29 31.29 0 0 1 11.4-2.09c18.7.2 30.29 15.76 30.47 33.4Z"></path>
  <path fill="#313440" d="M306.83 24.32a31.29 31.29 0 0 0-11.4 2.09c-.67.25-1.33.53-1.99.83-.59.27-6.5 4.14-6.67 4.04-3.47-2.08-7.39-4.27-11.78-6.44a161.265 161.265 0 0 0-22.38-9.09 163.25 163.25 0 0 0-39.25-7.5c-1.1 5.84-5.5 10.29-10.7 11.08-6.59 1-13.59-4.04-14.89-11.83a83.582 83.582 0 0 0-9.615 21.54 12.496 12.496 0 0 0 9.505 2.684c5.2-.79 9.6-5.24 10.7-11.08a163.25 163.25 0 0 1 39.25 7.5 161.266 161.266 0 0 1 22.38 9.09c4.39 2.17 8.31 4.36 11.78 6.44.17.1 6.08-3.77 6.67-4.04.66-.3 1.32-.58 1.99-.83a31.29 31.29 0 0 1 11.4-2.09c18.7.2 30.29 15.76 30.47 33.4.129 11.996-3.273 24.013-8.015 35.24l8.815.636c7.66-14.64 14.38-31.48 14.2-48.27-.18-17.64-11.77-33.2-30.47-33.4Z"></path>
  <path fill="#ffc166" d="M312.054 112.11h16.543a24.858 24.858 0 0 1 24.858 24.858v.111a24.858 24.858 0 0 1-24.858 24.858h-16.543V112.11zm-113.852 1.038-16.56-1.038a24.877 24.877 0 0 0-24.84 24.914 24.877 24.877 0 0 0 24.84 24.913l16.56 1.039z"></path>
  <path fill="#f66" d="m437.28 453.87-21.91-75.12h-.01l-18.39-63.05a79.993 79.993 0 0 0-76.6-56.93h-7.87c-4.67 0-24.02-1.34-27.71-3.65a23.946 23.946 0 0 1-11.29-20.35l15-28.22h-65v28.22a24.006 24.006 0 0 1-24 24h-7.87a79.993 79.993 0 0 0-76.6 56.93L74.72 453.87a30.002 30.002 0 0 0 31.98 38.24l126.95-13.56A25.006 25.006 0 0 0 256 453.86q0 .51.03 1.02a25.012 25.012 0 0 0 22.32 23.67l126.95 13.56a30.002 30.002 0 0 0 31.98-38.24Zm-307.42-10.32 1.13-.24 30.426-81.12a2.801 2.801 0 0 1 5.424.985v77.895l42.76 10.69.181-1.933 7.105 1.449 2.374 13.084Zm214.69-2.34v-80.297a2.801 2.801 0 0 1 5.416-1.006l7.244 18.843 24.93 64.8Z"></path>
  <path fill="#ff4e4e" d="m437.28 453.87-21.91-75.12h-.01l-18.39-63.05a79.993 79.993 0 0 0-76.6-56.93h-7.87a24.019 24.019 0 0 1-24-24v-28.22h-27.644v28.22a24.019 24.019 0 0 0 24 24h7.87a79.993 79.993 0 0 1 76.6 56.93l18.39 63.05h.01l21.91 75.12a30.03 30.03 0 0 1-18.743 36.701l14.407 1.539a30.002 30.002 0 0 0 31.98-38.24Z"></path>
  <path fill="#ffc570" d="m405.3 492.11-14.41-1.54a30.035 30.035 0 0 0 18.75-36.7l-21.91-75.12h27.64l21.91 75.12a30.002 30.002 0 0 1-31.98 38.24Z"></path>
  <path fill="#ff4e4e" d="M228.386 454.88q-.03-.51-.03-1.02a25.006 25.006 0 0 1-22.35 24.69L93.463 490.571a29.869 29.869 0 0 0 13.237 1.539l126.95-13.56a24.925 24.925 0 0 0 8.52-2.504 25.015 25.015 0 0 1-13.784-21.166Z"></path>
  <path fill="#ffc97a" d="M299.79 255.12a80.186 80.186 0 0 1-92.19 2.24 23.987 23.987 0 0 0 15.9-22.59v-28.22h65v28.22a23.946 23.946 0 0 0 11.29 20.35Z"></path>
  <path fill="#ffcd85" d="M254.226 225.818c-37.353-.486-67.068-31.715-67.068-69.181l1.251-60.366a175.046 175.046 0 0 0 43.869 1.188 175.094 175.094 0 0 0 38.927-8.41 115.794 115.794 0 0 0 29.475 12.966c8.397 2.364 22.419 3.97 22.419 3.97v51.668a68.068 68.068 0 0 1-68.873 68.165Z"></path>
  <path fill="#ffc570" d="M219.721 100.033a174.848 174.848 0 0 0 24.145-4.117 174.676 174.676 0 0 1-11.588 1.543 175.045 175.045 0 0 1-43.869-1.188l-.083 4.033a174.767 174.767 0 0 0 31.395-.271zm80.959 1.982a115.794 115.794 0 0 1-29.475-12.966 175.737 175.737 0 0 1-11.223 3.385 115.715 115.715 0 0 0 28.141 12.154c8.398 2.364 22.419 3.972 22.419 3.972v51.666a68.17 68.17 0 0 1-48.022 65.179 68.093 68.093 0 0 0 60.579-67.752v-51.667s-14.022-1.607-22.42-3.971z"></path>
  <path fill="#ff4e4e" d="M343.42 455.5v38.97l-65.07-6.95a25.012 25.012 0 0 1-22.32-23.67q-.03-.51-.03-1.02v-7.24ZM256 455.59v7.24q0 .51-.03 1.02a25.012 25.012 0 0 1-22.32 23.67l-66.81 7.14v-38.98Z"></path>
  <path fill="#ffcd85" d="m405.3 492.11-126.95-13.56a25.012 25.012 0 0 1-22.32-23.67q-.03-.51-.03-1.02V368.7l20.27 20.27a55.514 55.514 0 0 1 7.33 9.02 56.617 56.617 0 0 1 6.52 13.74l8.48 26.6 28.68 1.79 14.02.89 3.25.2 37.59 2.34-24.93-64.8h58.16l21.91 75.12a30.002 30.002 0 0 1-31.98 38.24Z"></path>
  <path fill="#ffc570" d="m405.3 492.11-14.41-1.54a30.035 30.035 0 0 0 18.75-36.7l-21.91-75.12h27.64l21.91 75.12a30.002 30.002 0 0 1-31.98 38.24Z"></path>
  <path fill="#ffc570" d="M390.319 438.916 367.17 378.75h-9.961l24.93 64.8h4.996a3.41 3.41 0 0 0 3.183-4.634zM288.312 478.55a25.012 25.012 0 0 1-22.32-23.67q-.03-.51-.03-1.02V378.66L256 368.7v85.16q0 .51.03 1.02a25.012 25.012 0 0 0 22.32 23.67l126.95 13.56a30.287 30.287 0 0 0 8.014-.208z"></path>
  <path fill="#ffcd85" d="m106.696 492.11 126.95-13.56a25.012 25.012 0 0 0 22.32-23.67q.03-.51.03-1.02V368.7l-20.27 20.27a56.228 56.228 0 0 0-13.85 22.76l-8.48 26.6-28.68 1.79-14.02.89-39.708 2.3 24.212-64.556-58.574-.004-21.91 75.12a30.002 30.002 0 0 0 31.98 38.24Z"></path>
  <path fill="#313440" d="m444.48 451.77-21.915-75.119c-.019-.062-.035-.125-.055-.187l-18.359-62.927a87.495 87.495 0 0 0-83.78-62.266H312.5a16.52 16.52 0 0 1-16.5-16.5v-13.49a76.231 76.231 0 0 0 12.072-9.7 75.112 75.112 0 0 0 21.619-42.168 32.393 32.393 0 0 0 31.269-32.333v-.11a32.403 32.403 0 0 0-28.857-32.167c8.79-17.862 12.848-32.956 12.699-47.158-.243-23.042-16.532-40.594-37.889-40.827a39.38 39.38 0 0 0-16.592 3.605 33.476 33.476 0 0 0-3.542 2.108l-.052.033A170.67 170.67 0 0 0 213.858.77a7.462 7.462 0 0 0-7.863 6.087c-.495 2.615-2.368 4.74-4.455 5.056-2.504.382-5.741-1.846-6.374-5.645a7.5 7.5 0 0 0-13.741-2.77 90.802 90.802 0 0 0-13.823 52.368 89.595 89.595 0 0 0 13.262 42.508l-.13 6.26a32.42 32.42 0 0 0-21.97 55.297 32.044 32.044 0 0 0 21.974 9.488A77.203 77.203 0 0 0 216 222.113v12.658a16.52 16.52 0 0 1-16.5 16.5h-7.87a87.494 87.494 0 0 0-83.8 62.329L89.49 376.466c-.019.06-.035.12-.052.18L67.52 451.77a37.504 37.504 0 0 0 35.98 48.011 37.947 37.947 0 0 0 3.997-.212l51.84-5.537V504.5a7.5 7.5 0 0 0 15 0v-12.072l60.111-6.421A32.427 32.427 0 0 0 256 474.48a32.43 32.43 0 0 0 21.553 11.527l58.367 6.234V504.5a7.5 7.5 0 0 0 15 0v-10.655l53.586 5.723a37.503 37.503 0 0 0 39.974-47.798ZM179.704 154.324a17.153 17.153 0 0 1-10.315-4.982 17.414 17.414 0 0 1 11.034-29.668Zm150.895-34.59a17.378 17.378 0 0 1 15.361 17.236v.11a17.379 17.379 0 0 1-15.361 17.236ZM182.582 55.119a74.584 74.584 0 0 1 5.826-32.625 19.874 19.874 0 0 0 15.373 4.252 20.232 20.232 0 0 0 14.623-10.544 155.49 155.49 0 0 1 63.792 21.088 20.823 20.823 0 0 1 7.15 14.585 7.5 7.5 0 0 0 7.481 7.068c.146 0 .292-.004.439-.012a7.5 7.5 0 0 0 7.055-7.92 35.554 35.554 0 0 0-5.875-17.713 23.515 23.515 0 0 1 8.305-1.479c14.955.162 22.917 13.195 23.05 25.985.122 11.527-3.492 24.675-11.004 40.056a139.761 139.761 0 0 1-16.085-3.064 107.765 107.765 0 0 1-15.588-5.738 31.167 31.167 0 0 0 3.651-3.924 7.5 7.5 0 1 0-11.828-9.223 17.318 17.318 0 0 1-8.048 5.656 7.5 7.5 0 0 0-2.1.38 167.84 167.84 0 0 1-37.26 8.05 167.49 167.49 0 0 1-38.617-.674 74.498 74.498 0 0 1-10.34-34.204Zm12.075 101.595 1.077-51.929a182.607 182.607 0 0 0 37.283.139 182.919 182.919 0 0 0 37.275-7.682 123.173 123.173 0 0 0 28.355 11.993 148.155 148.155 0 0 0 16.952 3.322v45.096a60.569 60.569 0 0 1-61.276 60.667c-32.876-.428-59.627-28.056-59.666-61.606Zm92.931 97.302a72.604 72.604 0 0 1-35.495 9.327l-.524-.002a72.312 72.312 0 0 1-29.539-6.586A31.389 31.389 0 0 0 231 234.77v-5.511a73.504 73.504 0 0 0 23.128 4.057c.338.005.672.007 1.009.007A75.276 75.276 0 0 0 281 228.77v6.001a31.333 31.333 0 0 0 6.588 19.245ZM248.5 453.69a17.471 17.471 0 0 1-15.646 17.402l-66.725 7.127-.132.014-60.09 6.42A22.502 22.502 0 0 1 81.92 455.97l20.34-69.717h42.117l-20.411 54.422c-.01.025-.015.05-.024.074-.046.127-.084.258-.124.389-.034.112-.07.223-.1.336-.025.103-.043.208-.065.312-.03.146-.062.291-.084.437-.01.065-.013.131-.02.197a7.396 7.396 0 0 0-.051.565c-.002.04 0 .08-.001.12-.006.215-.005.428.007.64v.031c.003.037.01.073.013.11.016.198.036.394.067.589.013.082.03.162.046.243.03.153.06.305.099.456.028.11.062.219.095.327.036.118.072.235.114.35.045.126.095.247.146.368.042.099.083.197.129.294.058.123.12.242.185.361.051.095.103.19.158.282.065.11.135.215.205.32.067.1.134.198.205.294.066.09.136.177.207.264.085.105.172.209.263.31.065.071.132.14.2.208.103.107.21.211.32.311.065.06.132.115.199.172.118.099.237.196.362.29.073.053.148.104.223.155.122.084.245.167.373.245.092.055.187.106.282.157.116.064.232.128.353.186.117.056.237.105.358.155.083.035.163.076.248.108.027.01.054.017.08.026.093.034.187.06.28.09.136.044.272.087.408.122.085.022.17.04.256.058.155.034.31.065.465.09l.218.029q.262.033.524.047l.19.008c.07.002.142.01.212.01.06 0 .118-.013.178-.014.098-.002.194.003.293-.003l82.41-5.15a7.498 7.498 0 0 0 6.678-5.208l8.481-26.615a49.018 49.018 0 0 1 12.007-19.728l7.466-7.467Zm-89.163-64.608v44.942l-17.26 1.079ZM261.04 362.99a7.311 7.311 0 0 0-.433-.372c-.148-.116-.3-.22-.455-.323-.15-.1-.298-.197-.455-.286a7.345 7.345 0 0 0-.535-.27c-.1-.046-.19-.105-.292-.147-.056-.023-.113-.034-.17-.056a7.45 7.45 0 0 0-.574-.19c-.163-.048-.325-.098-.49-.135a7.37 7.37 0 0 0-.565-.096c-.174-.025-.347-.053-.521-.065-.186-.014-.373-.013-.56-.013-.178 0-.355-.001-.532.012-.183.013-.364.041-.546.068-.182.027-.363.053-.542.093-.17.038-.337.089-.506.139-.19.057-.378.115-.564.187-.056.021-.114.032-.17.056-.102.042-.193.1-.292.147-.181.085-.36.171-.536.27a7.457 7.457 0 0 0-.453.286 7.426 7.426 0 0 0-.456.323c-.151.117-.292.243-.433.371-.086.079-.18.145-.264.228l-20.27 20.27a64.087 64.087 0 0 0-15.692 25.785l-6.922 21.723-33.475 2.092v-84l4.185-11.16a7.5 7.5 0 1 0-14.044-5.267l-14.475 38.594h-43.367l15.576-53.39a72.492 72.492 0 0 1 69.418-51.593h7.87a31.482 31.482 0 0 0 6.957-.784 88.412 88.412 0 0 0 45.009 12.853l.635.002a88.102 88.102 0 0 0 48.24-14.515 31.33 31.33 0 0 0 12.159 2.444h7.87a72.493 72.493 0 0 1 69.4 51.53l15.594 53.453h-42.998l-14.617-38.006a7.5 7.5 0 1 0-14 5.385l3.299 8.577v87.919l-32.77-3.853-7.01-21.999a64.098 64.098 0 0 0-15.695-25.79l-20.27-20.27c-.082-.083-.177-.149-.263-.227Zm111.422 76.302-20.414-2.4v-50.68Zm53.28 37.42a22.138 22.138 0 0 1-19.645 7.94l-61.846-6.606-.116-.012-64.988-6.941A17.473 17.473 0 0 1 263.5 453.69v-67.063l7.466 7.467a49.028 49.028 0 0 1 12.009 19.733l8.48 26.61a7.499 7.499 0 0 0 6.269 5.171l85.32 10.03a7.562 7.562 0 0 0 .849.05l.028.002c.083 0 .167-.008.25-.01a7.485 7.485 0 0 0 6.998-5.6c.02-.075.045-.15.063-.226.02-.09.033-.184.05-.276.03-.158.06-.316.08-.476l.006-.036c.008-.067.007-.134.014-.202.015-.17.03-.339.034-.51.002-.102-.003-.203-.005-.304-.003-.143-.004-.285-.015-.428-.01-.132-.029-.262-.045-.392-.015-.11-.026-.22-.045-.33-.028-.162-.067-.32-.105-.479-.02-.079-.034-.158-.056-.236a7.3 7.3 0 0 0-.18-.55c-.017-.046-.028-.093-.046-.139l-.023-.058-.016-.043-22.745-59.141h41.606l20.34 69.716a22.179 22.179 0 0 1-4.34 20.743ZM223.534 119.84h-.096a17.654 17.654 0 0 0-12.249 5.117 5 5 0 0 0 7.07 7.07c.07-.068.168-.16.285-.264a15.066 15.066 0 0 0-.54 4.05c0 5.05 2.318 9.146 5.176 9.146s5.175-4.095 5.175-9.147a14.677 14.677 0 0 0-.755-4.74 7.537 7.537 0 0 1 1.196.952 5 5 0 1 0 7.076-7.064 17.623 17.623 0 0 0-12.338-5.12Zm33.152 74.11a18.066 18.066 0 0 0 12.65-5.262 5 5 0 1 0-7.081-7.06 8.087 8.087 0 0 1-5.572 2.321h-.042a8.094 8.094 0 0 1-5.53-2.321 5 5 0 0 0-7.082 7.06 18.08 18.08 0 0 0 12.559 5.261Zm21.375-60.458a4.982 4.982 0 0 0 3.539-1.468 7.53 7.53 0 0 1 1.012-.827 14.762 14.762 0 0 0-.713 4.616c0 5.05 2.318 9.146 5.176 9.146s5.175-4.095 5.175-9.146a14.999 14.999 0 0 0-.582-4.202c.2.165.365.314.464.413a5 5 0 1 0 7.076-7.064 17.623 17.623 0 0 0-12.337-5.12h-.096a17.64 17.64 0 0 0-12.252 5.12 5 5 0 0 0 3.538 8.532Z"></path>
</svg>
